<?xml version="1.0" encoding="UTF-8"?><svg width="13" height="13" style="background-color:#000" version="1.1" xmlns="http://www.w3.org/2000/svg"><rect x="1" y="1" width="1" height="5" fill="#700"/><rect x="1" y="7" width="1" height="5" fill="#f00"/><rect x="3" y="1" width="1" height="5" fill="#770"/><rect x="3" y="7" width="1" height="5" fill="#ff0"/><rect x="5" y="1" width="1" height="5" fill="#070"/><rect x="5" y="7" width="1" height="5" fill="#0f0"/><rect x="7" y="1" width="1" height="5" fill="#077"/><rect x="7" y="7" width="1" height="5" fill="#0ff"/><rect x="9" y="1" width="1" height="5" fill="#007"/><rect x="9" y="7" width="1" height="5" fill="#00f"/><rect x="11" y="1" width="1" height="5" fill="#707"/><rect x="11" y="7" width="1" height="5" fill="#f0f"/><rect x="1" y="2" width="11" height="1"/><rect x="1" y="4" width="11" height="1"/><rect x="1" y="8" width="11" height="1"/><rect x="1" y="10" width="11" height="1"/></svg>